<svg xmlns="http://www.w3.org/2000/svg" viewBox="0 0 32 32" xml:space="preserve" width="30" height="30" fill="#5751e1"><path d="M20 24h-8c-.6 0-1 .4-1 1s.4 1 1 1c0 2.2 1.8 4 4 4s4-1.8 4-4c.6 0 1-.4 1-1s-.4-1-1-1M4 12H2c-.6 0-1 .4-1 1s.4 1 1 1h2c.6 0 1-.4 1-1s-.4-1-1-1m2.8 8.8-1.4 1.4c-.4.4-.4 1 0 1.4.2.2.5.3.7.3s.5-.1.7-.3l1.4-1.4c.4-.4.4-1 0-1.4s-1-.4-1.4 0m18.4 0c-.4-.4-1-.4-1.4 0s-.4 1 0 1.4l1.4 1.4c.2.2.5.3.7.3s.5-.1.7-.3c.4-.4.4-1 0-1.4zM30 12h-2c-.6 0-1 .4-1 1s.4 1 1 1h2c.6 0 1-.4 1-1s-.4-1-1-1m-4.8-9.6-1.4 1.4c-.4.4-.4 1 0 1.4.2.2.5.3.7.3s.5-.1.7-.3l1.4-1.4c.4-.4.4-1 0-1.4s-1-.4-1.4 0M6.8 5.2c.2.2.5.3.7.3s.5-.1.7-.3c.4-.4.4-1 0-1.4L6.8 2.4c-.4-.4-1-.4-1.4 0s-.4 1 0 1.4zm15.2.1c-1.9-1.7-4.5-2.5-7-2.2-4 .4-7.3 3.6-7.9 7.5-.4 2.8.4 5.6 2.4 7.7 1 1 1.5 2.4 1.5 3.8 0 .6.4 1 1 1h8c.6 0 1-.4 1-1 0-1.4.5-2.8 1.5-3.7a9.1 9.1 0 0 0 2.5-6.3c0-2.7-1.1-5.1-3-6.8m-5 11.6c0 .6-.4 1.1-1 1.1s-1-.4-1-1c-.6 0-1-.4-1-1s.4-1 1-1h1.5c.3 0 .5-.2.5-.5s-.2-.5-.5-.5h-1c-1.4 0-2.5-1.1-2.5-2.5 0-1.2.9-2.2 2-2.4V9c0-.6.4-1 1-1s1 .4 1 1c.6 0 1 .4 1 1s-.4 1-1 1h-1.5c-.3 0-.5.2-.5.5s.2.5.5.5h1c1.4 0 2.5 1.1 2.5 2.5 0 1.2-.9 2.2-2 2.4"/></svg>